Genre:Drama
Language:English
IMDb:http://www.imdb.com/title/tt1587278/
Source:720p.BluRay.x264-aAF


Format : MPEG-4
Format profile : Base Media
Codec ID : mp42
File size : 1.61 GiB
Duration : 2h 0mn
Overall bit rate : 1 908 Kbps


Video
Codec ID : avc1
Codec ID/Info : Advanced Video Coding
Duration : 2h 0mn
Bit rate mode : Variable
Bit rate : 1 426 Kbps
Width : 1 280 pixels
Height : 720 pixels
Display aspect ratio : 16:9
Frame rate mode : Constant
Frame rate : 23.976 fps
Color space : YUV
Chroma subsampling : 4:2:0
Bit depth : 8 bits
Scan type : Progressive
Bits/(Pixel*Frame) : 0.065
Stream size : 1.20 GiB (75%)
Language : English

Audio
ID : 2
Format : AAC
Format/Info : Advanced Audio Codec
Format version : Version 4
Format profile : LC
Codec ID : 40
Duration : 2h 0mn
Bit rate mode : Constant
Bit rate : 480 Kbps
Channel(s) : 6 channels
Channel positions : Front: L C R, Side: L R, LFE
Sampling rate : 48.0 KHz
Stream size : 411 MiB (25%)
Language : English


Plot:
Meredith is a 35 year-old unmarried woman who arrives at a remote lighthouse island 1928 with her uncle the new head keeper









================================== 
http://thepiratebay.org/user/hiest
==================================